G04 DipTrace 2.3.1.0*
%INBottomMask.gbr*%
%MOMM*%
%ADD34C,0.9*%
%ADD38R,2.7X2.2*%
%ADD40R,2.5X0.7*%
%ADD42O,2.0X2.7*%
%ADD44O,2.7X2.0*%
%ADD46C,1.419*%
%ADD48O,1.71X1.7*%
%ADD50C,1.7*%
%ADD52R,1.7X1.7*%
%ADD66R,1.5X1.7*%
%FSLAX53Y53*%
G04*
G71*
G90*
G75*
G01*
%LNBotMask*%
%LPD*%
D66*
X-14389Y25224D3*
X-12489D3*
D52*
X15685Y44675D3*
D50*
X18225D3*
D52*
X-17200Y39417D3*
D48*
X-14660D3*
D50*
X-12120D3*
D46*
X-15559Y29570D3*
X-10733D3*
X-16392Y34294D3*
X-11566D3*
D44*
X-25018Y39115D3*
Y44115D3*
D42*
X-27718Y41615D3*
D40*
X18032Y27549D3*
Y26748D3*
Y25948D3*
Y25149D3*
Y24349D3*
D38*
X18132Y30399D3*
Y21498D3*
X23632Y30399D3*
Y21498D3*
D34*
X20632Y28149D3*
Y23748D3*
D52*
X20610Y41555D3*
D50*
X23150D3*
X20610Y39015D3*
X23150D3*
X20610Y36475D3*
X23150D3*
X20610Y33935D3*
X23150D3*
D52*
X-20510Y19380D3*
D50*
X-17970D3*
X-15430D3*
X-12890D3*
X-10350D3*
X-7810D3*
X-5270D3*
X-2730D3*
X-190D3*
X2350D3*
X4890D3*
X7430D3*
X9970D3*
X12510D3*
D52*
X-20510Y44779D3*
D50*
X-17970D3*
X-15430D3*
X-12890D3*
X-10350D3*
X-7810D3*
X-5270D3*
X-2730D3*
X-190D3*
X2350D3*
X4890D3*
X7430D3*
X9970D3*
X12510D3*
M02*
