G04 DipTrace 2.3.1.0*
%INBottom.gbr*%
%MOMM*%
%ADD13C,0.2*%
%ADD14C,0.4*%
%ADD15C,0.635*%
%ADD16R,1.3X1.5*%
%ADD24R,1.5X1.5*%
%ADD25C,1.5*%
%ADD26O,1.51X1.5*%
%ADD27C,1.219*%
%ADD28O,2.5X1.8*%
%ADD29O,1.8X2.5*%
%ADD31R,2.3X0.5*%
%ADD32R,2.5X2.0*%
%ADD33C,1.0*%
%FSLAX53Y53*%
G04*
G71*
G90*
G75*
G01*
%LNBottom*%
%LPD*%
X11229Y35438D2*
D13*
X9708Y33917D1*
Y25635D1*
X9052Y24979D1*
X9146D1*
X-27718Y41615D2*
X-25218Y44115D1*
X-25018D1*
X18132Y30399D2*
X23632D1*
X18032Y24349D2*
X18132Y24248D1*
Y21498D1*
X23632D1*
Y30399D1*
X23150Y33935D2*
X23632Y33453D1*
Y30399D1*
X18132Y21498D2*
Y22604D1*
D14*
X9906D1*
D13*
X9833Y22677D1*
Y24490D1*
X9344Y24979D1*
X9146D1*
X-14389Y25224D2*
X-17797D1*
X-17875Y25146D1*
Y25104D1*
X-19000Y23979D1*
X-7229Y35188D2*
Y35146D1*
X-5479Y33396D1*
Y28958D1*
X1552Y21927D1*
X9792D1*
X9833Y21969D1*
Y22677D1*
X11397Y33123D2*
X11562Y32957D1*
Y26646D1*
X12260Y25948D1*
X18032D1*
X12771Y32312D2*
X12854Y32229D1*
Y26729D1*
X16146D1*
X16165Y26748D1*
X18032D1*
X9562Y38271D2*
Y39656D1*
X15594D1*
X18775Y36475D1*
X20610D1*
X-8354Y30188D2*
Y25542D1*
X-8208Y25396D1*
X14979Y21229D2*
X-4042D1*
X-8208Y25396D1*
X-12489Y25224D2*
X-9464D1*
X-9417Y25271D1*
X-8333D1*
X-8208Y25396D1*
X12646Y34229D2*
Y35229D1*
X21812D1*
Y37729D1*
X23099Y39015D1*
X23150D1*
X18032Y27549D2*
X18018Y27562D1*
X15312D1*
X14812Y28062D1*
Y33812D1*
X14854Y33854D1*
X18021D1*
X2104Y39375D2*
X2042Y39312D1*
Y38938D1*
X-1688D1*
X-1594Y38844D1*
X-1531D1*
X8250Y39396D2*
X8542Y39688D1*
Y40344D1*
X17302D1*
X18677Y38969D1*
X20610D1*
Y39015D1*
X15685Y44675D2*
X14197Y43188D1*
X-15396D1*
X-15430Y43222D1*
Y44779D1*
X-27271Y38396D2*
X-26021Y37146D1*
X-22854D1*
X-16812Y43188D1*
X-15396D1*
X5271Y40521D2*
X6854Y42104D1*
X20610D1*
Y41555D1*
X6667Y39938D2*
Y40104D1*
X7708Y41146D1*
X18542D1*
X19458Y40229D1*
X21896D1*
X23150Y41483D1*
Y41555D1*
X-12120Y39417D2*
Y39255D1*
X-13021Y38354D1*
Y36271D1*
Y26771D1*
X-18646D1*
X-21729Y23688D1*
Y23396D1*
X11146Y23938D2*
X11312Y24104D1*
X13896D1*
X-583Y36271D2*
X-13021D1*
Y26771D2*
X-9917D1*
X-9583Y26438D1*
X10833Y37167D2*
X7938D1*
X312D1*
X-583Y36271D1*
X8438Y23052D2*
X7938D1*
Y37167D1*
D33*
X9562Y38271D3*
X11397Y33123D3*
X12771Y32312D3*
X12646Y34229D3*
X6667Y39938D3*
X-8354Y30188D3*
X2104Y39375D3*
X11229Y35438D3*
X9146Y24979D3*
X-1531Y38844D3*
X-21729Y23396D3*
X-27271Y38396D3*
X5271Y40521D3*
X18021Y33854D3*
X13896Y24104D3*
X11146Y23938D3*
X-7229Y35188D3*
X8250Y39396D3*
X14979Y21229D3*
X-8208Y25396D3*
X-583Y36271D3*
X-19000Y23979D3*
X-9583Y26438D3*
X10833Y37167D3*
X8438Y23052D3*
X-30286Y44851D2*
D15*
X-20129D1*
X20370D2*
X24619D1*
X-30286Y44219D2*
X-20050D1*
X20330D2*
X24619D1*
X-30286Y43587D2*
X-19752D1*
X23714D2*
X24619D1*
X-30286Y42956D2*
X-19147D1*
X-30286Y42324D2*
X-19782D1*
X-30286Y41693D2*
X-20407D1*
X-16202D2*
X3783D1*
X-30286Y41061D2*
X-26548D1*
X-23494D2*
X-21042D1*
X-16837D2*
X-16021D1*
X-10765D2*
X1292D1*
X2908D2*
X3445D1*
X-30286Y40429D2*
X-27253D1*
X-22790D2*
X-21677D1*
X-17472D2*
X-16557D1*
X-10229D2*
X-2537D1*
X-525D2*
X528D1*
X-30286Y39797D2*
X-28533D1*
X-18097D2*
X-16785D1*
X-10001D2*
X-3172D1*
X-30286Y39166D2*
X-29009D1*
X-18732D2*
X-16805D1*
X-9981D2*
X-3411D1*
X-30286Y38534D2*
X-29168D1*
X-19367D2*
X-16627D1*
X-10159D2*
X-3411D1*
X-30286Y37903D2*
X-29108D1*
X-19992D2*
X-16170D1*
X-10616D2*
X-3182D1*
X12581D2*
X15242D1*
X-30286Y37271D2*
X-28791D1*
X-20627D2*
X-14523D1*
X12740D2*
X15877D1*
X-30286Y36639D2*
X-27888D1*
X-21262D2*
X-14523D1*
X-30286Y36008D2*
X-26975D1*
X-21907D2*
X-17391D1*
X-15398D2*
X-14523D1*
X-30286Y35376D2*
X-18085D1*
X1092D2*
X6432D1*
X9446D2*
X10341D1*
X-30286Y34744D2*
X-18353D1*
X-9604D2*
X-1674D1*
X516D2*
X6432D1*
X9446D2*
X10460D1*
X24389D2*
X24627D1*
X-30286Y34113D2*
X-18403D1*
X-9564D2*
X6432D1*
X9446D2*
X9771D1*
X22791D2*
X24619D1*
X-30286Y33481D2*
X-18234D1*
X-9733D2*
X6432D1*
X22712D2*
X24619D1*
X-30286Y32849D2*
X-17768D1*
X-15011D2*
X-14523D1*
X-10189D2*
X6432D1*
X22464D2*
X24619D1*
X-30286Y32218D2*
X-14523D1*
X-11519D2*
X6432D1*
X9446D2*
X9734D1*
X16322D2*
X17108D1*
X18931D2*
X19346D1*
X21868D2*
X24619D1*
X-30286Y31586D2*
X-14523D1*
X-11519D2*
X-9622D1*
X-7094D2*
X6432D1*
X9446D2*
X10053D1*
X16322D2*
X24619D1*
X-30286Y30954D2*
X-17004D1*
X-6617D2*
X6432D1*
X9446D2*
X10053D1*
X16322D2*
X24619D1*
X-30286Y30323D2*
X-17420D1*
X-6449D2*
X6432D1*
X9446D2*
X10053D1*
X16322D2*
X24619D1*
X-30286Y29691D2*
X-17569D1*
X-6518D2*
X6432D1*
X9446D2*
X10053D1*
X16322D2*
X19658D1*
X21610D2*
X24619D1*
X-30286Y29059D2*
X-17510D1*
X-6836D2*
X6432D1*
X9446D2*
X10053D1*
X22235D2*
X24619D1*
X-30286Y28427D2*
X-17202D1*
X-6846D2*
X6432D1*
X9446D2*
X10053D1*
X22464D2*
X24619D1*
X-30286Y27796D2*
X-19722D1*
X-6846D2*
X6432D1*
X9446D2*
X10053D1*
X22454D2*
X24619D1*
X-30286Y27164D2*
X-20357D1*
X-6846D2*
X6432D1*
X9446D2*
X10053D1*
X22196D2*
X24619D1*
X-30286Y26532D2*
X-20992D1*
X-6697D2*
X6432D1*
X9446D2*
X10063D1*
X21471D2*
X24619D1*
X-30286Y25901D2*
X-21617D1*
X-6369D2*
X6432D1*
X9446D2*
X10262D1*
X20588D2*
X24619D1*
X-30286Y25269D2*
X-22252D1*
X-18047D2*
X-14543D1*
X-5982D2*
X6432D1*
X9446D2*
X9808D1*
X21640D2*
X24619D1*
X-30286Y24637D2*
X-23155D1*
X-18672D2*
X-14543D1*
X-5347D2*
X6432D1*
X22255D2*
X24619D1*
X-30286Y24006D2*
X-23532D1*
X-19307D2*
X-14543D1*
X-4712D2*
X6432D1*
X22474D2*
X24619D1*
X-30286Y23374D2*
X-23631D1*
X-19823D2*
X-14543D1*
X-10437D2*
X-8292D1*
X-4087D2*
X6432D1*
X15647D2*
X18814D1*
X22444D2*
X24619D1*
X-30286Y22742D2*
X-23512D1*
X-19942D2*
X-7657D1*
X-3452D2*
X6462D1*
X16094D2*
X19082D1*
X22176D2*
X24619D1*
X-30286Y22111D2*
X-23115D1*
X-20349D2*
X-7022D1*
X16659D2*
X19836D1*
X21422D2*
X24619D1*
X-30286Y21479D2*
X-6397D1*
X16868D2*
X24619D1*
X-30286Y20848D2*
X-22669D1*
X16848D2*
X24619D1*
X-30286Y20216D2*
X-22669D1*
X16580D2*
X24619D1*
X-30286Y19584D2*
X-22669D1*
X15876D2*
X24619D1*
X-30286Y18953D2*
X-22669D1*
X14625D2*
X24619D1*
X-30286Y18321D2*
X-22669D1*
X14377D2*
X24619D1*
X-10496Y23774D2*
Y23131D1*
X-14482D1*
Y25323D1*
X-18051Y25328D1*
X-19892Y23484D1*
X-19914Y23080D1*
X-19995Y22773D1*
X-20127Y22485D1*
X-20307Y22224D1*
X-20529Y21998D1*
X-20786Y21812D1*
X-21072Y21674D1*
X-21377Y21587D1*
X-21692Y21553D1*
X-22008Y21574D1*
X-22316Y21649D1*
X-22607Y21776D1*
X-22872Y21950D1*
X-23103Y22167D1*
X-23293Y22421D1*
X-23437Y22704D1*
X-23530Y23007D1*
X-23571Y23321D1*
X-23556Y23638D1*
X-23488Y23948D1*
X-23367Y24241D1*
X-23198Y24509D1*
X-22985Y24744D1*
X-22735Y24940D1*
X-22456Y25089D1*
X-22300Y25157D1*
X-19666Y27791D1*
X-19419Y27989D1*
X-19134Y28129D1*
X-18734Y28211D1*
X-16969Y28214D1*
X-17234Y28567D1*
X-17374Y28851D1*
X-17467Y29154D1*
X-17509Y29469D1*
X-17500Y29786D1*
X-17439Y30097D1*
X-17329Y30394D1*
X-17172Y30670D1*
X-16973Y30917D1*
X-16736Y31128D1*
X-16469Y31298D1*
X-16177Y31422D1*
X-15869Y31498D1*
X-15553Y31523D1*
X-15237Y31496D1*
X-14929Y31418D1*
X-14638Y31292D1*
X-14463Y31179D1*
X-14466Y33977D1*
X-14542Y33670D1*
X-14668Y33378D1*
X-14839Y33111D1*
X-15051Y32875D1*
X-15298Y32677D1*
X-15574Y32521D1*
X-15872Y32412D1*
X-16183Y32352D1*
X-16500Y32344D1*
X-16815Y32387D1*
X-17118Y32481D1*
X-17402Y32622D1*
X-17659Y32808D1*
X-17883Y33032D1*
X-18067Y33290D1*
X-18208Y33574D1*
X-18300Y33878D1*
X-18342Y34192D1*
X-18333Y34509D1*
X-18273Y34821D1*
X-18162Y35118D1*
X-18006Y35394D1*
X-17806Y35640D1*
X-17570Y35851D1*
X-17302Y36021D1*
X-17010Y36146D1*
X-16702Y36221D1*
X-16386Y36246D1*
X-16070Y36219D1*
X-15762Y36142D1*
X-15471Y36015D1*
X-15205Y35843D1*
X-14970Y35631D1*
X-14772Y35383D1*
X-14617Y35106D1*
X-14509Y34808D1*
X-14463Y34564D1*
X-14464Y37332D1*
X-14870Y37334D1*
X-15182Y37389D1*
X-15483Y37490D1*
X-15765Y37636D1*
X-16021Y37822D1*
X-16247Y38045D1*
X-16436Y38300D1*
X-16584Y38581D1*
X-16688Y38880D1*
X-16746Y39192D1*
X-16756Y39509D1*
X-16718Y39824D1*
X-16633Y40129D1*
X-16503Y40419D1*
X-16330Y40685D1*
X-16120Y40922D1*
X-15875Y41124D1*
X-15603Y41288D1*
X-15310Y41408D1*
X-15002Y41482D1*
X-14675Y41509D1*
X-14359Y41488D1*
X-14049Y41420D1*
X-13754Y41305D1*
X-13393Y41079D1*
X-13058Y41288D1*
X-12765Y41408D1*
X-12457Y41482D1*
X-12141Y41509D1*
X-11824Y41488D1*
X-11514Y41420D1*
X-11219Y41305D1*
X-10944Y41147D1*
X-10695Y40949D1*
X-10480Y40717D1*
X-10303Y40454D1*
X-10167Y40167D1*
X-10076Y39863D1*
X-10028Y39417D1*
X-10052Y39100D1*
X-10123Y38791D1*
X-10241Y38497D1*
X-10401Y38223D1*
X-10601Y37977D1*
X-10911Y37715D1*
X-2990Y37714D1*
X-3239Y38151D1*
X-3333Y38455D1*
X-3373Y38769D1*
X-3358Y39086D1*
X-3290Y39395D1*
X-3169Y39689D1*
X-3000Y39957D1*
X-2787Y40192D1*
X-2538Y40388D1*
X-2258Y40537D1*
X-1957Y40637D1*
X-1643Y40683D1*
X-1326Y40675D1*
X-1015Y40613D1*
X-720Y40498D1*
X-524Y40381D1*
X565Y40380D1*
X848Y40724D1*
X1098Y40919D1*
X1378Y41069D1*
X1679Y41168D1*
X1992Y41215D1*
X2309Y41206D1*
X2620Y41144D1*
X2916Y41030D1*
X3188Y40866D1*
X3433Y40650D1*
X3512Y41073D1*
X3633Y41366D1*
X3802Y41634D1*
X3902Y41744D1*
X-16219Y41745D1*
X-21834Y36126D1*
X-22081Y35927D1*
X-22366Y35788D1*
X-22766Y35706D1*
X-26021Y35703D1*
X-26336Y35738D1*
X-26636Y35840D1*
X-26977Y36065D1*
X-27483Y36568D1*
X-27858Y36649D1*
X-28149Y36776D1*
X-28414Y36950D1*
X-28645Y37167D1*
X-28835Y37421D1*
X-28979Y37704D1*
X-29072Y38007D1*
X-29112Y38321D1*
X-29098Y38638D1*
X-29029Y38948D1*
X-28909Y39241D1*
X-28739Y39509D1*
X-28527Y39744D1*
X-28277Y39940D1*
X-27998Y40089D1*
X-27696Y40189D1*
X-27313Y40234D1*
X-27112Y40526D1*
X-26895Y40758D1*
X-26648Y40957D1*
X-26375Y41119D1*
X-26083Y41241D1*
X-25776Y41321D1*
X-25368Y41358D1*
X-24443Y41347D1*
X-24131Y41293D1*
X-23829Y41195D1*
X-23544Y41056D1*
X-23281Y40878D1*
X-23046Y40664D1*
X-22844Y40420D1*
X-22678Y40149D1*
X-22552Y39858D1*
X-22471Y39562D1*
X-19055Y42986D1*
X-19326Y43184D1*
X-19551Y43408D1*
X-19740Y43662D1*
X-19889Y43943D1*
X-19993Y44242D1*
X-20051Y44554D1*
X-20061Y44871D1*
X-20023Y45186D1*
X-19940Y45482D1*
X-30349D1*
Y17776D1*
X-22601D1*
X-22603Y21473D1*
X-18417D1*
Y21423D1*
X-17990Y21473D1*
X-17674Y21452D1*
X-17364Y21383D1*
X-17068Y21269D1*
X-16708Y21043D1*
X-16368Y21251D1*
X-16074Y21371D1*
X-15766Y21446D1*
X-15450Y21473D1*
X-15134Y21452D1*
X-14824Y21383D1*
X-14528Y21269D1*
X-14168Y21043D1*
X-13828Y21251D1*
X-13534Y21371D1*
X-13226Y21446D1*
X-12910Y21473D1*
X-12594Y21452D1*
X-12284Y21383D1*
X-11988Y21269D1*
X-11628Y21043D1*
X-11288Y21251D1*
X-10994Y21371D1*
X-10686Y21446D1*
X-10370Y21473D1*
X-10054Y21452D1*
X-9744Y21383D1*
X-9448Y21269D1*
X-9088Y21043D1*
X-8748Y21251D1*
X-8454Y21371D1*
X-8146Y21446D1*
X-7830Y21473D1*
X-7514Y21452D1*
X-7204Y21383D1*
X-6908Y21269D1*
X-6548Y21043D1*
X-6125Y21285D1*
X-6858Y22005D1*
X-8423Y23569D1*
X-8796Y23649D1*
X-9144Y23814D1*
X-9491Y23781D1*
X-10506D1*
X20294Y44359D2*
X20222Y44050D1*
X20040Y43644D1*
X22703Y43648D1*
Y43598D1*
X23130Y43648D1*
X23447Y43627D1*
X23756Y43558D1*
X24052Y43444D1*
X24327Y43286D1*
X24575Y43088D1*
X24689Y42964D1*
X24683Y45482D1*
X20148D1*
X20270Y45122D1*
X20318Y44675D1*
X20294Y44359D1*
X-11579Y31325D2*
X-11351Y31422D1*
X-11043Y31498D1*
X-10727Y31523D1*
X-10411Y31496D1*
X-10103Y31418D1*
X-9823Y31301D1*
X-9610Y31536D1*
X-9360Y31731D1*
X-9081Y31881D1*
X-8780Y31981D1*
X-8466Y32027D1*
X-8149Y32019D1*
X-7838Y31957D1*
X-7542Y31842D1*
X-7271Y31678D1*
X-7031Y31471D1*
X-6831Y31225D1*
X-6676Y30948D1*
X-6570Y30649D1*
X-6511Y30188D1*
X-6539Y29872D1*
X-6620Y29565D1*
X-6752Y29277D1*
X-6915Y29040D1*
X-6911Y26705D1*
X-6685Y26433D1*
X-6530Y26157D1*
X-6424Y25858D1*
X-6383Y25613D1*
X-3449Y22677D1*
X2943Y22672D1*
X6545D1*
X6495Y23052D1*
Y35722D1*
X1181Y35724D1*
X1019Y35360D1*
X839Y35099D1*
X617Y34873D1*
X360Y34687D1*
X74Y34549D1*
X-231Y34462D1*
X-546Y34428D1*
X-862Y34449D1*
X-1171Y34524D1*
X-1461Y34651D1*
X-1733Y34832D1*
X-9682Y34828D1*
X-9624Y34496D1*
X-9614Y34294D1*
X-9640Y33977D1*
X-9716Y33670D1*
X-9842Y33378D1*
X-10013Y33111D1*
X-10225Y32875D1*
X-10472Y32677D1*
X-10748Y32521D1*
X-11046Y32412D1*
X-11357Y32352D1*
X-11585Y32346D1*
X-11578Y31340D1*
X16263Y29141D2*
X19141D1*
X19325Y29376D1*
X19562Y29587D1*
X19832Y29753D1*
X20127Y29869D1*
X20438Y29931D1*
X20755Y29937D1*
X21069Y29887D1*
X21368Y29783D1*
X21645Y29628D1*
X21889Y29426D1*
X22095Y29185D1*
X22254Y28911D1*
X22363Y28613D1*
X22425Y28149D1*
X22397Y27833D1*
X22313Y27527D1*
X22178Y27240D1*
X21993Y26982D1*
X21767Y26760D1*
X21504Y26582D1*
X21215Y26453D1*
X20907Y26377D1*
X20522Y26364D1*
X20515Y25956D1*
X20525Y25547D1*
X21069Y25487D1*
X21368Y25383D1*
X21645Y25228D1*
X21889Y25026D1*
X22095Y24785D1*
X22254Y24511D1*
X22363Y24213D1*
X22425Y23748D1*
X22397Y23433D1*
X22313Y23127D1*
X22178Y22840D1*
X21993Y22582D1*
X21767Y22360D1*
X21504Y22182D1*
X21215Y22053D1*
X20907Y21977D1*
X20591Y21956D1*
X20276Y21991D1*
X19972Y22082D1*
X19688Y22224D1*
X19434Y22414D1*
X19218Y22646D1*
X19046Y22912D1*
X18923Y23205D1*
X18852Y23564D1*
X16397Y23556D1*
X15658D1*
X15498Y23194D1*
X15380Y23022D1*
X15791Y22884D1*
X16062Y22720D1*
X16302Y22512D1*
X16502Y22266D1*
X16658Y21990D1*
X16763Y21691D1*
X16822Y21229D1*
X16795Y20913D1*
X16714Y20607D1*
X16581Y20319D1*
X16402Y20057D1*
X16180Y19831D1*
X15922Y19646D1*
X15637Y19508D1*
X15332Y19420D1*
X15017Y19387D1*
X14594Y19433D1*
X14579Y19064D1*
X14507Y18755D1*
X14390Y18460D1*
X14229Y18187D1*
X14029Y17940D1*
X13846Y17774D1*
X24683Y17776D1*
X24669Y35036D1*
X24434Y34823D1*
X24170Y34647D1*
X23882Y34514D1*
X23577Y34426D1*
X23263Y34385D1*
X22979Y34380D1*
X22723Y34111D1*
X22699Y34068D1*
X22679Y33619D1*
X22607Y33310D1*
X22490Y33015D1*
X22329Y32742D1*
X22129Y32496D1*
X21894Y32283D1*
X21630Y32107D1*
X21342Y31974D1*
X21037Y31886D1*
X20723Y31845D1*
X20405Y31852D1*
X20093Y31907D1*
X19793Y32009D1*
X19511Y32154D1*
X19177Y32418D1*
X18964Y32271D1*
X18678Y32133D1*
X18373Y32045D1*
X18058Y32012D1*
X17742Y32033D1*
X17434Y32107D1*
X17143Y32234D1*
X16871Y32415D1*
X16265Y32411D1*
X16255Y30637D1*
Y29139D1*
X10117Y31806D2*
X9833Y32148D1*
X9689Y32430D1*
X9595Y32733D1*
X9555Y33048D1*
X9570Y33365D1*
X9638Y33674D1*
X9759Y33968D1*
X9928Y34236D1*
X10141Y34471D1*
X10391Y34667D1*
X10670Y34816D1*
X10924Y34900D1*
X11177Y35342D1*
X11186Y35358D1*
X10871Y35324D1*
X10554Y35345D1*
X10246Y35420D1*
X9955Y35546D1*
X9683Y35728D1*
X9375Y35724D1*
X9380Y30499D1*
Y24635D1*
X9508Y24783D1*
X9677Y25051D1*
X9890Y25286D1*
X10140Y25481D1*
X10504Y25659D1*
X10297Y25953D1*
X10176Y26246D1*
X10120Y26646D1*
Y31795D1*
X6519Y38790D2*
X6186Y38915D1*
X5928Y38799D1*
X5623Y38712D1*
X5308Y38678D1*
X4992Y38699D1*
X4684Y38774D1*
X4393Y38901D1*
X4128Y39075D1*
X3948Y39245D1*
X3839Y38752D1*
X3777Y38617D1*
X5075Y38610D1*
X6593D1*
X6516Y38789D1*
X12649Y36851D2*
X12601Y36669D1*
X16545Y36672D1*
X14997Y38212D1*
X12357Y38204D1*
X12512Y37928D1*
X12617Y37628D1*
X12676Y37167D1*
X12649Y36851D1*
D16*
X-14389Y25224D3*
X-12489D3*
D24*
X15685Y44675D3*
D25*
X18225D3*
D24*
X-17200Y39417D3*
D26*
X-14660D3*
D25*
X-12120D3*
D27*
X-15559Y29570D3*
X-10733D3*
X-16392Y34294D3*
X-11566D3*
D28*
X-25018Y39115D3*
Y44115D3*
D29*
X-27718Y41615D3*
D31*
X18032Y27549D3*
Y26748D3*
Y25948D3*
Y25149D3*
Y24349D3*
D32*
X18132Y30399D3*
Y21498D3*
X23632Y30399D3*
Y21498D3*
D24*
X20610Y41555D3*
D25*
X23150D3*
X20610Y39015D3*
X23150D3*
X20610Y36475D3*
X23150D3*
X20610Y33935D3*
X23150D3*
D24*
X-20510Y19380D3*
D25*
X-17970D3*
X-15430D3*
X-12890D3*
X-10350D3*
X-7810D3*
X-5270D3*
X-2730D3*
X-190D3*
X2350D3*
X4890D3*
X7430D3*
X9970D3*
X12510D3*
D24*
X-20510Y44779D3*
D25*
X-17970D3*
X-15430D3*
X-12890D3*
X-10350D3*
X-7810D3*
X-5270D3*
X-2730D3*
X-190D3*
X2350D3*
X4890D3*
X7430D3*
X9970D3*
X12510D3*
M02*
