M48
METRIC,0000.00
T01C0.5
T02C0.8
T03C0.813
T04C0.9
%
T01
X+000956Y+003827
X+001083Y+003717
X+001123Y+003544
X+001265Y+003423
X+001140Y+003312
X+001277Y+003231
X+001802Y+003385
X+001390Y+002410
X+001115Y+002394
X+000915Y+002498
X+000844Y+002305
X+001498Y+002123
X+000825Y+003940
X+000667Y+003994
X+000527Y+004052
X+000210Y+003938
X-000153Y+003884
X-000058Y+003627
X-000723Y+003519
X-000835Y+003019
X-000958Y+002644
X-000821Y+002540
X-001900Y+002398
X-002173Y+002340
X-002727Y+003840
T02
X-002467Y+003912G85X-002537Y+003912
X-002772Y+004127G85X-002772Y+004197
X-002467Y+004412G85X-002537Y+004412
T03
X-001556Y+002957
X-001639Y+003429
X-001157Y+003429
X-001073Y+002957
T04
X+001568Y+004468
X+001822Y+004468
X+002061Y+004156
X+002315Y+004156
X+002315Y+003902
X+002061Y+003902
X+002061Y+003648
X+002315Y+003648
X+002315Y+003394
X+002061Y+003394
X+002063Y+002815
X+002063Y+002375
X+001251Y+001938
X+000997Y+001938
X+000743Y+001938
X+000489Y+001938
X+000235Y+001938
X-000019Y+001938
X-000273Y+001938
X-000527Y+001938
X-000781Y+001938
X-001035Y+001938
X-001289Y+001938
X-001543Y+001938
X-001797Y+001938
X-002051Y+001938
X-001720Y+003942
X-001466Y+003942
X-001212Y+003942
X-001289Y+004478
X-001543Y+004478
X-001797Y+004478
X-002051Y+004478
X-001035Y+004478
X-000781Y+004478
X-000527Y+004478
X-000273Y+004478
X-000019Y+004478
X+000235Y+004478
X+000489Y+004478
X+000743Y+004478
X+000997Y+004478
X+001251Y+004478
T00
M30
