G04 DipTrace 2.3.1.0*
%INTopMask.gbr*%
%MOMM*%
%ADD34C,0.9*%
%ADD42O,2.0X2.7*%
%ADD44O,2.7X2.0*%
%ADD46C,1.419*%
%ADD48O,1.71X1.7*%
%ADD50C,1.7*%
%ADD52R,1.7X1.7*%
%ADD54R,3.45X2.35*%
%ADD56R,1.15X2.35*%
%ADD58R,0.5X1.8*%
%ADD60R,1.8X0.5*%
%ADD62R,2.2X1.8*%
%ADD64R,1.7X1.5*%
%ADD66R,1.5X1.7*%
%FSLAX53Y53*%
G04*
G71*
G90*
G75*
G01*
%LNTopMask*%
%LPD*%
D66*
X-21910Y32070D3*
X-20010D3*
X-21951Y30064D3*
X-20051D3*
X-21910Y36358D3*
X-20010D3*
X-21910Y34135D3*
X-20010D3*
D64*
X7581Y25109D3*
Y27009D3*
D66*
X9318Y35457D3*
X7418D3*
D64*
X-2699Y35564D3*
Y37464D3*
X-6410Y27685D3*
Y29585D3*
X-29890Y39484D3*
Y41384D3*
D66*
X-21471Y27996D3*
X-23371D3*
X-27307Y27392D3*
X-25407D3*
D64*
X-21183Y41337D3*
Y39437D3*
D66*
X-8951Y37052D3*
X-7051D3*
D64*
X-4664Y36636D3*
Y34736D3*
D62*
X-16975Y25398D3*
X-11575D3*
D60*
X-1025Y33865D3*
Y33365D3*
Y32865D3*
Y32365D3*
Y31865D3*
Y31365D3*
Y30865D3*
Y30365D3*
Y29865D3*
Y29365D3*
Y28865D3*
Y28365D3*
D58*
X425Y26915D3*
X925D3*
X1425D3*
X1925D3*
X2425D3*
X2925D3*
X3425D3*
X3925D3*
X4425D3*
X4925D3*
X5425D3*
X5925D3*
D60*
X7375Y28365D3*
Y28865D3*
Y29365D3*
Y29865D3*
Y30365D3*
Y30865D3*
Y31365D3*
Y31865D3*
Y32365D3*
Y32865D3*
Y33365D3*
Y33865D3*
D58*
X5925Y35315D3*
X5425D3*
X4925D3*
X4425D3*
X3925D3*
X3425D3*
X2925D3*
X2425D3*
X1925D3*
X1425D3*
X925D3*
X425D3*
D56*
X-24883Y36374D3*
X-27183D3*
X-29483D3*
D54*
X-27183Y30574D3*
D52*
X15685Y44675D3*
D50*
X18225D3*
D52*
X-17200Y39417D3*
D48*
X-14660D3*
D50*
X-12120D3*
D46*
X-15559Y29570D3*
X-10733D3*
X-16392Y34294D3*
X-11566D3*
D56*
X-24653Y24446D3*
X-26953D3*
X-29253D3*
D54*
X-26953Y18646D3*
D44*
X-25018Y39115D3*
Y44115D3*
D42*
X-27718Y41615D3*
D34*
X20632Y28149D3*
Y23748D3*
D52*
X20610Y41555D3*
D50*
X23150D3*
X20610Y39015D3*
X23150D3*
X20610Y36475D3*
X23150D3*
X20610Y33935D3*
X23150D3*
D52*
X-20510Y19380D3*
D50*
X-17970D3*
X-15430D3*
X-12890D3*
X-10350D3*
X-7810D3*
X-5270D3*
X-2730D3*
X-190D3*
X2350D3*
X4890D3*
X7430D3*
X9970D3*
X12510D3*
D52*
X-20510Y44779D3*
D50*
X-17970D3*
X-15430D3*
X-12890D3*
X-10350D3*
X-7810D3*
X-5270D3*
X-2730D3*
X-190D3*
X2350D3*
X4890D3*
X7430D3*
X9970D3*
X12510D3*
M02*
