G04 DipTrace 2.3.1.0*
%INTopSilk.gbr*%
%MOMM*%
%ADD10C,0.25*%
%ADD14C,0.4*%
%ADD15C,0.635*%
%ADD21O,0.391X0.392*%
%ADD69C,0.157*%
%ADD70C,0.314*%
%FSLAX53Y53*%
G04*
G71*
G90*
G75*
G01*
%LNTopSilk*%
%LPD*%
X-22960Y31421D2*
D10*
Y32720D1*
X-23002Y29414D2*
Y30713D1*
X-22960Y35708D2*
Y37007D1*
Y33485D2*
Y34784D1*
X8231Y24058D2*
X6932D1*
X10368Y36106D2*
Y34807D1*
X-2050Y34513D2*
X-3349D1*
X-5761Y26635D2*
X-7060D1*
X-29240Y38433D2*
X-30539D1*
X-20421Y28645D2*
Y27346D1*
X-28357Y26743D2*
Y28042D1*
X-21833Y42286D2*
X-20534D1*
X-9900Y36403D2*
Y37702D1*
X-17275Y23598D2*
X-11275D1*
X-17275Y27198D2*
X-11275D1*
X-17275D2*
Y26598D1*
Y23598D2*
Y24198D1*
X-11275Y23598D2*
Y24198D1*
Y26598D2*
Y27198D1*
X-17275Y26798D2*
X-16774D1*
Y26498D1*
Y24398D2*
Y23998D1*
X-17275D1*
X-15675Y26098D2*
X-12875D1*
Y24698D1*
X-15675D1*
Y26098D1*
G36*
X-15374Y25798D2*
X-13176D1*
Y24998D1*
X-15374D1*
Y25798D1*
G37*
X-15275Y25698D2*
D10*
X-15675Y26098D1*
X-13275Y25698D2*
X-12875Y26098D1*
X-13275Y25098D2*
X-12875Y24698D1*
X-15275Y25098D2*
X-15575Y24698D1*
D15*
X-18561Y25398D3*
X174Y34115D2*
D10*
X6176D1*
Y28115D1*
X174D1*
Y34115D1*
G36*
D2*
Y33315D1*
X975Y34115D1*
X174D1*
G37*
D14*
X-1025Y34566D3*
D21*
X-23910Y37141D3*
X-23883Y34874D2*
D10*
X-30483D1*
X-23883Y32074D2*
X-30483D1*
Y34874D2*
Y32074D1*
X-23883Y34874D2*
Y32074D1*
X14285Y43275D2*
X19625D1*
X14285Y46077D2*
X19625D1*
Y43275D2*
Y46077D1*
X14285Y43275D2*
Y46077D1*
X-18600Y38017D2*
Y40818D1*
Y38017D2*
X-10720D1*
Y40818D1*
X-18600D2*
X-10720D1*
X-16194Y27411D2*
X-10098D1*
X-16194Y31729D2*
X-10098D1*
X-16194Y27919D2*
X-10098D1*
Y31221D2*
X-16194D1*
X-13400Y30332D2*
X-12892D1*
Y28808D1*
X-13400D1*
Y30332D1*
X-12511D2*
Y29570D1*
Y28808D1*
X-13781Y30332D2*
Y29570D1*
Y28808D1*
X-12511Y29570D2*
X-11876D1*
X-13781D2*
X-14417D1*
X-16194Y31729D2*
G03X-16194Y27411I0J-2159D01*
G01*
X-10098D2*
G03X-10098Y31729I0J2159D01*
G01*
X-16194Y31221D2*
G03X-16194Y27919I1J-1651D01*
G01*
X-10098D2*
G03X-10098Y31221I-1J1651D01*
G01*
X-17028Y32135D2*
X-10931D1*
X-17028Y36453D2*
X-10931D1*
X-17028Y32642D2*
X-10931D1*
Y35945D2*
X-17028D1*
X-14234Y35056D2*
X-13725D1*
Y33531D1*
X-14234D1*
Y35056D1*
X-13344D2*
Y34294D1*
Y33531D1*
X-14615Y35056D2*
Y34294D1*
Y33531D1*
X-13344Y34294D2*
X-12709D1*
X-14615D2*
X-15250D1*
X-17028Y36453D2*
G03X-17028Y32135I0J-2159D01*
G01*
X-10931D2*
G03X-10931Y36453I0J2159D01*
G01*
X-17028Y35945D2*
G03X-17028Y32642I1J-1651D01*
G01*
X-10931D2*
G03X-10931Y35945I-1J1651D01*
G01*
D21*
X-23679Y25213D3*
X-23653Y22946D2*
D10*
X-30252D1*
X-23653Y20146D2*
X-30252D1*
Y22946D2*
Y20146D1*
X-23653Y22946D2*
Y20146D1*
X-27519Y50315D2*
X-22519D1*
Y39115D1*
X-23318D1*
X-26618D2*
X-27519D1*
Y40016D1*
Y43116D2*
Y50315D1*
X19340Y42825D2*
Y32665D1*
X24420Y42825D2*
Y32665D1*
X19340Y42825D2*
X24420D1*
X19340Y32665D2*
X24420D1*
X13780Y18110D2*
Y20650D1*
X-21780Y18110D2*
X13780D1*
X-21780D2*
Y20650D1*
X-19860D1*
X13780D1*
Y43509D2*
Y46049D1*
X-21780Y43509D2*
X13780D1*
X-21780D2*
Y46049D1*
X-19860D1*
X13780D1*
X-19831Y22158D2*
D69*
X-20852Y21769D1*
X-19831Y21380D1*
X-20171Y21526D2*
Y22012D1*
X-20851Y22764D2*
X-20803Y22618D1*
X-20657Y22520D1*
X-20414Y22472D1*
X-20268D1*
X-20025Y22520D1*
X-19879Y22618D1*
X-19831Y22764D1*
Y22861D1*
X-19879Y23007D1*
X-20025Y23103D1*
X-20268Y23153D1*
X-20414D1*
X-20657Y23103D1*
X-20803Y23007D1*
X-20851Y22861D1*
Y22764D1*
X-20657Y23103D2*
X-20025Y22520D1*
X-17300Y22127D2*
X-18320Y21737D1*
X-17300Y21349D1*
X-17640Y21495D2*
Y21981D1*
X-18125Y22441D2*
X-18174Y22538D1*
X-18319Y22684D1*
X-17300D1*
X-14914Y22117D2*
X-15935Y21727D1*
X-14914Y21338D1*
X-15255Y21484D2*
Y21971D1*
X-15692Y22480D2*
X-15740D1*
X-15838Y22528D1*
X-15886Y22576D1*
X-15934Y22674D1*
Y22868D1*
X-15886Y22965D1*
X-15838Y23013D1*
X-15740Y23063D1*
X-15643D1*
X-15546Y23013D1*
X-15401Y22917D1*
X-14914Y22430D1*
Y23111D1*
X-12331Y22033D2*
X-13352Y21644D1*
X-12331Y21255D1*
X-12671Y21401D2*
Y21887D1*
X-13351Y22445D2*
Y22978D1*
X-12962Y22687D1*
Y22833D1*
X-12914Y22930D1*
X-12866Y22978D1*
X-12720Y23028D1*
X-12623D1*
X-12477Y22978D1*
X-12379Y22882D1*
X-12331Y22736D1*
Y22590D1*
X-12379Y22445D1*
X-12429Y22396D1*
X-12525Y22347D1*
X-9890Y22093D2*
X-10911Y21703D1*
X-9890Y21314D1*
X-10231Y21460D2*
Y21947D1*
X-9890Y22893D2*
X-10910D1*
X-10231Y22406D1*
Y23135D1*
X-7321Y22039D2*
X-8342Y21649D1*
X-7321Y21261D1*
X-7661Y21407D2*
Y21893D1*
X-8341Y22936D2*
Y22451D1*
X-7904Y22402D1*
X-7952Y22451D1*
X-8002Y22597D1*
Y22742D1*
X-7952Y22888D1*
X-7856Y22985D1*
X-7710Y23034D1*
X-7613D1*
X-7467Y22985D1*
X-7369Y22888D1*
X-7321Y22742D1*
Y22597D1*
X-7369Y22451D1*
X-7419Y22402D1*
X-7515Y22353D1*
X-4722Y21939D2*
X-5743Y21549D1*
X-4722Y21161D1*
X-5063Y21307D2*
Y21793D1*
X-5597Y22835D2*
X-5694Y22787D1*
X-5742Y22641D1*
Y22545D1*
X-5694Y22399D1*
X-5548Y22301D1*
X-5305Y22253D1*
X-5063D1*
X-4868Y22301D1*
X-4771Y22399D1*
X-4722Y22545D1*
Y22593D1*
X-4771Y22738D1*
X-4868Y22835D1*
X-5014Y22884D1*
X-5063D1*
X-5209Y22835D1*
X-5305Y22738D1*
X-5353Y22593D1*
Y22545D1*
X-5305Y22399D1*
X-5209Y22301D1*
X-5063Y22253D1*
X-2157Y21914D2*
X-3178Y21524D1*
X-2157Y21136D1*
X-2498Y21282D2*
Y21768D1*
X-2157Y22422D2*
X-3177Y22909D1*
Y22228D1*
X-528Y21185D2*
X493D1*
Y21623D1*
X443Y21769D1*
X395Y21817D1*
X299Y21865D1*
X153D1*
X55Y21817D1*
X7Y21769D1*
X-42Y21623D1*
X-91Y21769D1*
X-139Y21817D1*
X-236Y21865D1*
X-334D1*
X-430Y21817D1*
X-480Y21769D1*
X-528Y21623D1*
Y21185D1*
X-42D2*
Y21623D1*
X-527Y22471D2*
X-479Y22325D1*
X-333Y22227D1*
X-90Y22179D1*
X56D1*
X299Y22227D1*
X445Y22325D1*
X493Y22471D1*
Y22568D1*
X445Y22714D1*
X299Y22810D1*
X56Y22860D1*
X-90D1*
X-333Y22810D1*
X-479Y22714D1*
X-527Y22568D1*
Y22471D1*
X-333Y22810D2*
X299Y22227D1*
X1953Y21403D2*
X2973D1*
Y21841D1*
X2924Y21987D1*
X2876Y22035D1*
X2779Y22084D1*
X2633D1*
X2535Y22035D1*
X2487Y21987D1*
X2439Y21841D1*
X2389Y21987D1*
X2341Y22035D1*
X2245Y22084D1*
X2147D1*
X2050Y22035D1*
X2001Y21987D1*
X1953Y21841D1*
Y21403D1*
X2439D2*
Y21841D1*
X2148Y22397D2*
X2099Y22495D1*
X1954Y22641D1*
X2973D1*
X4235Y21185D2*
X5256D1*
Y21623D1*
X5206Y21769D1*
X5158Y21817D1*
X5062Y21865D1*
X4916D1*
X4818Y21817D1*
X4770Y21769D1*
X4721Y21623D1*
X4672Y21769D1*
X4624Y21817D1*
X4527Y21865D1*
X4429D1*
X4333Y21817D1*
X4283Y21769D1*
X4235Y21623D1*
Y21185D1*
X4721D2*
Y21623D1*
X4479Y22228D2*
X4430D1*
X4333Y22277D1*
X4284Y22325D1*
X4236Y22423D1*
Y22617D1*
X4284Y22714D1*
X4333Y22762D1*
X4430Y22811D1*
X4527D1*
X4625Y22762D1*
X4770Y22665D1*
X5256Y22179D1*
Y22860D1*
X6802Y21239D2*
X7823D1*
Y21677D1*
X7773Y21823D1*
X7725Y21872D1*
X7628Y21920D1*
X7482D1*
X7385Y21872D1*
X7336Y21823D1*
X7288Y21677D1*
X7239Y21823D1*
X7190Y21872D1*
X7094Y21920D1*
X6996D1*
X6900Y21872D1*
X6850Y21823D1*
X6802Y21677D1*
Y21239D1*
X7288D2*
Y21677D1*
X6997Y22234D2*
X6948Y22331D1*
X6803Y22477D1*
X7823D1*
X6803Y23083D2*
X6851Y22937D1*
X6997Y22839D1*
X7240Y22791D1*
X7386D1*
X7628Y22839D1*
X7774Y22937D1*
X7823Y23083D1*
Y23180D1*
X7774Y23326D1*
X7628Y23422D1*
X7386Y23472D1*
X7240D1*
X6997Y23422D1*
X6851Y23326D1*
X6803Y23180D1*
Y23083D1*
X6997Y23422D2*
X7628Y22839D1*
X9535Y21124D2*
X10555D1*
Y21562D1*
X10506Y21708D1*
X10458Y21757D1*
X10361Y21805D1*
X10215D1*
X10117Y21757D1*
X10069Y21708D1*
X10021Y21562D1*
X9971Y21708D1*
X9923Y21757D1*
X9827Y21805D1*
X9729D1*
X9632Y21757D1*
X9583Y21708D1*
X9535Y21562D1*
Y21124D1*
X10021D2*
Y21562D1*
X9730Y22119D2*
X9681Y22216D1*
X9536Y22362D1*
X10555D1*
X9730Y22676D2*
X9681Y22774D1*
X9536Y22920D1*
X10555D1*
X12127Y21156D2*
X13147D1*
Y21594D1*
X13098Y21740D1*
X13050Y21788D1*
X12953Y21837D1*
X12807D1*
X12709Y21788D1*
X12661Y21740D1*
X12613Y21594D1*
X12563Y21740D1*
X12515Y21788D1*
X12419Y21837D1*
X12321D1*
X12224Y21788D1*
X12175Y21740D1*
X12127Y21594D1*
Y21156D1*
X12613D2*
Y21594D1*
X12322Y22150D2*
X12273Y22248D1*
X12128Y22394D1*
X13147D1*
X12370Y22757D2*
X12322D1*
X12224Y22805D1*
X12176Y22854D1*
X12128Y22951D1*
Y23146D1*
X12176Y23242D1*
X12224Y23291D1*
X12322Y23340D1*
X12419D1*
X12516Y23291D1*
X12661Y23194D1*
X13147Y22708D1*
Y23388D1*
X22541Y20230D2*
D70*
X22346Y20037D1*
X22249Y19745D1*
Y19356D1*
X22346Y19064D1*
X22541Y18869D1*
X22734D1*
X22930Y18968D1*
X23026Y19064D1*
X23123Y19257D1*
X23318Y19841D1*
X23415Y20037D1*
X23514Y20133D1*
X23707Y20230D1*
X23999D1*
X24192Y20037D1*
X24291Y19745D1*
Y19356D1*
X24192Y19064D1*
X23999Y18869D1*
X22249Y21149D2*
X23902D1*
X24192Y21246D1*
X24291Y21441D1*
Y21635D1*
X22930Y20857D2*
Y21538D1*
Y23428D2*
X24291D1*
X23222D2*
X23026Y23235D1*
X22930Y23039D1*
Y22749D1*
X23026Y22554D1*
X23222Y22361D1*
X23514Y22262D1*
X23707D1*
X23999Y22361D1*
X24192Y22554D1*
X24291Y22749D1*
Y23039D1*
X24192Y23235D1*
X23999Y23428D1*
X22930Y24055D2*
X24291D1*
X23514D2*
X23222Y24154D1*
X23026Y24347D1*
X22930Y24543D1*
Y24835D1*
X22249Y25754D2*
X23902D1*
X24192Y25851D1*
X24291Y26046D1*
Y26239D1*
X22930Y25462D2*
Y26143D1*
X23514Y26867D2*
Y28032D1*
X23318D1*
X23123Y27936D1*
X23026Y27839D1*
X22930Y27644D1*
Y27352D1*
X23026Y27159D1*
X23222Y26963D1*
X23514Y26867D1*
X23707D1*
X23999Y26963D1*
X24192Y27159D1*
X24291Y27352D1*
Y27644D1*
X24192Y27839D1*
X23999Y28032D1*
X22930Y28660D2*
X24291D1*
X23514D2*
X23222Y28759D1*
X23026Y28952D1*
X22930Y29147D1*
Y29439D1*
X19833Y32338D2*
D69*
Y31317D1*
X20174D1*
X20320Y31367D1*
X20417Y31463D1*
X20466Y31561D1*
X20514Y31706D1*
Y31949D1*
X20466Y32095D1*
X20417Y32192D1*
X20320Y32290D1*
X20174Y32338D1*
X19833D1*
X20828Y31706D2*
X21411D1*
Y31803D1*
X21362Y31901D1*
X21314Y31949D1*
X21216Y31998D1*
X21070D1*
X20974Y31949D1*
X20876Y31852D1*
X20828Y31706D1*
Y31609D1*
X20876Y31463D1*
X20974Y31367D1*
X21070Y31317D1*
X21216D1*
X21314Y31367D1*
X21411Y31463D1*
X21724Y32338D2*
Y31317D1*
Y31852D2*
X21822Y31949D1*
X21919Y31998D1*
X22065D1*
X22161Y31949D1*
X22259Y31852D1*
X22307Y31706D1*
Y31609D1*
X22259Y31463D1*
X22161Y31367D1*
X22065Y31317D1*
X21919D1*
X21822Y31367D1*
X21724Y31463D1*
X22621Y31998D2*
Y31511D1*
X22669Y31367D1*
X22767Y31317D1*
X22913D1*
X23009Y31367D1*
X23155Y31511D1*
Y31998D2*
Y31317D1*
X24052Y31949D2*
Y31171D1*
X24004Y31026D1*
X23955Y30977D1*
X23858Y30929D1*
X23712D1*
X23615Y30977D1*
X24052Y31803D2*
X23955Y31900D1*
X23858Y31949D1*
X23712D1*
X23615Y31900D1*
X23517Y31803D1*
X23469Y31657D1*
Y31560D1*
X23517Y31415D1*
X23615Y31317D1*
X23712Y31269D1*
X23858D1*
X23955Y31317D1*
X24052Y31415D1*
X20417Y45005D2*
Y44276D1*
X20465Y44130D1*
X20563Y44033D1*
X20709Y43984D1*
X20805D1*
X20951Y44033D1*
X21049Y44130D1*
X21097Y44276D1*
Y45005D1*
X21994Y45004D2*
X21509D1*
X21460Y44567D1*
X21509Y44615D1*
X21655Y44664D1*
X21800D1*
X21946Y44615D1*
X22043Y44518D1*
X22092Y44372D1*
Y44276D1*
X22043Y44130D1*
X21946Y44032D1*
X21800Y43984D1*
X21655D1*
X21509Y44032D1*
X21460Y44081D1*
X21411Y44178D1*
X12170Y40525D2*
X13190D1*
Y40963D1*
X13141Y41109D1*
X13093Y41157D1*
X12996Y41206D1*
X12850D1*
X12752Y41157D1*
X12704Y41109D1*
X12656Y40963D1*
X12606Y41109D1*
X12558Y41157D1*
X12462Y41206D1*
X12364D1*
X12267Y41157D1*
X12218Y41109D1*
X12170Y40963D1*
Y40525D1*
X12656D2*
Y40963D1*
X12365Y41520D2*
X12316Y41617D1*
X12171Y41763D1*
X13190D1*
X12171Y42175D2*
Y42708D1*
X12559Y42417D1*
Y42563D1*
X12608Y42660D1*
X12656Y42708D1*
X12802Y42758D1*
X12898D1*
X13044Y42708D1*
X13142Y42612D1*
X13190Y42466D1*
Y42320D1*
X13142Y42175D1*
X13093Y42126D1*
X12996Y42077D1*
X9735Y40584D2*
X10756D1*
Y41022D1*
X10707Y41168D1*
X10659Y41217D1*
X10562Y41265D1*
X10416D1*
X10318Y41217D1*
X10270Y41168D1*
X10222Y41022D1*
X10172Y41168D1*
X10124Y41217D1*
X10027Y41265D1*
X9930D1*
X9833Y41217D1*
X9784Y41168D1*
X9735Y41022D1*
Y40584D1*
X10222D2*
Y41022D1*
X9931Y41579D2*
X9881Y41676D1*
X9736Y41822D1*
X10756D1*
Y42622D2*
X9736D1*
X10416Y42136D1*
Y42865D1*
X7253Y40650D2*
X8274D1*
Y41088D1*
X8224Y41234D1*
X8176Y41282D1*
X8079Y41331D1*
X7933D1*
X7836Y41282D1*
X7787Y41234D1*
X7739Y41088D1*
X7690Y41234D1*
X7641Y41282D1*
X7545Y41331D1*
X7447D1*
X7351Y41282D1*
X7301Y41234D1*
X7253Y41088D1*
Y40650D1*
X7739D2*
Y41088D1*
X7448Y41645D2*
X7399Y41742D1*
X7254Y41888D1*
X8274D1*
X7254Y42785D2*
Y42300D1*
X7691Y42251D1*
X7643Y42300D1*
X7593Y42446D1*
Y42591D1*
X7643Y42737D1*
X7739Y42834D1*
X7885Y42883D1*
X7982D1*
X8128Y42834D1*
X8225Y42737D1*
X8274Y42591D1*
Y42446D1*
X8225Y42300D1*
X8176Y42251D1*
X8079Y42202D1*
X5752Y41951D2*
X4731Y41561D1*
X5752Y41172D1*
X5411Y41318D2*
Y41805D1*
X4732Y42507D2*
X4780Y42362D1*
X4877Y42313D1*
X4974D1*
X5071Y42362D1*
X5120Y42459D1*
X5169Y42653D1*
X5217Y42799D1*
X5315Y42895D1*
X5411Y42944D1*
X5557D1*
X5654Y42895D1*
X5703Y42847D1*
X5752Y42701D1*
Y42507D1*
X5703Y42362D1*
X5654Y42313D1*
X5557Y42264D1*
X5411D1*
X5315Y42313D1*
X5217Y42410D1*
X5169Y42555D1*
X5120Y42749D1*
X5071Y42847D1*
X4974Y42895D1*
X4877D1*
X4780Y42847D1*
X4732Y42701D1*
Y42507D1*
X2853Y42057D2*
X1832Y41668D1*
X2853Y41279D1*
X2513Y41425D2*
Y41911D1*
X2172Y43004D2*
X2318Y42954D1*
X2416Y42858D1*
X2464Y42712D1*
Y42663D1*
X2416Y42517D1*
X2318Y42421D1*
X2172Y42371D1*
X2124D1*
X1978Y42421D1*
X1882Y42517D1*
X1833Y42663D1*
Y42712D1*
X1882Y42858D1*
X1978Y42954D1*
X2172Y43004D1*
X2416D1*
X2659Y42954D1*
X2805Y42858D1*
X2853Y42712D1*
Y42615D1*
X2805Y42469D1*
X2707Y42421D1*
X281Y41505D2*
X-740Y41115D1*
X281Y40726D1*
X-59Y40872D2*
Y41359D1*
X-545Y41818D2*
X-594Y41916D1*
X-739Y42062D1*
X281D1*
X-739Y42668D2*
X-691Y42522D1*
X-545Y42424D1*
X-302Y42376D1*
X-156D1*
X87Y42424D1*
X233Y42522D1*
X281Y42668D1*
Y42764D1*
X233Y42910D1*
X87Y43007D1*
X-156Y43056D1*
X-302D1*
X-545Y43007D1*
X-691Y42910D1*
X-739Y42764D1*
Y42668D1*
X-545Y43007D2*
X87Y42424D1*
X-3401Y40929D2*
X-2380D1*
Y41367D1*
X-2429Y41513D1*
X-2478Y41561D1*
X-2574Y41609D1*
X-2720D1*
X-2818Y41561D1*
X-2866Y41513D1*
X-2915Y41367D1*
X-2964Y41513D1*
X-3012Y41561D1*
X-3109Y41609D1*
X-3207D1*
X-3303Y41561D1*
X-3353Y41513D1*
X-3401Y41367D1*
Y40929D1*
X-2915D2*
Y41367D1*
X-3400Y42506D2*
Y42021D1*
X-2963Y41973D1*
X-3011Y42021D1*
X-3061Y42167D1*
Y42312D1*
X-3011Y42458D1*
X-2915Y42556D1*
X-2769Y42604D1*
X-2672D1*
X-2526Y42556D1*
X-2428Y42458D1*
X-2380Y42312D1*
Y42167D1*
X-2428Y42021D1*
X-2478Y41973D1*
X-2574Y41923D1*
X-6009Y40954D2*
X-4988D1*
Y41392D1*
X-5037Y41538D1*
X-5086Y41586D1*
X-5182Y41634D1*
X-5328D1*
X-5426Y41586D1*
X-5474Y41538D1*
X-5523Y41392D1*
X-5572Y41538D1*
X-5620Y41586D1*
X-5717Y41634D1*
X-5815D1*
X-5911Y41586D1*
X-5961Y41538D1*
X-6009Y41392D1*
Y40954D1*
X-5523D2*
Y41392D1*
X-5863Y42531D2*
X-5959Y42482D1*
X-6008Y42336D1*
Y42240D1*
X-5959Y42094D1*
X-5813Y41996D1*
X-5571Y41948D1*
X-5328D1*
X-5134Y41996D1*
X-5036Y42094D1*
X-4988Y42240D1*
Y42288D1*
X-5036Y42433D1*
X-5134Y42531D1*
X-5280Y42579D1*
X-5328D1*
X-5474Y42531D1*
X-5571Y42433D1*
X-5619Y42288D1*
Y42240D1*
X-5571Y42094D1*
X-5474Y41996D1*
X-5328Y41948D1*
X-8401Y41054D2*
X-7380D1*
Y41492D1*
X-7429Y41638D1*
X-7478Y41686D1*
X-7574Y41734D1*
X-7720D1*
X-7818Y41686D1*
X-7866Y41638D1*
X-7915Y41492D1*
X-7964Y41638D1*
X-8012Y41686D1*
X-8109Y41734D1*
X-8207D1*
X-8303Y41686D1*
X-8353Y41638D1*
X-8401Y41492D1*
Y41054D1*
X-7915D2*
Y41492D1*
X-7380Y42243D2*
X-8400Y42729D1*
Y42048D1*
X-10693Y41138D2*
X-9672D1*
Y41576D1*
X-9722Y41722D1*
X-9770Y41770D1*
X-9867Y41818D1*
X-10013D1*
X-10110Y41770D1*
X-10159Y41722D1*
X-10207Y41576D1*
X-10256Y41722D1*
X-10305Y41770D1*
X-10401Y41818D1*
X-10499D1*
X-10595Y41770D1*
X-10645Y41722D1*
X-10693Y41576D1*
Y41138D1*
X-10207D2*
Y41576D1*
X-10692Y42375D2*
X-10644Y42230D1*
X-10547Y42180D1*
X-10449D1*
X-10353Y42230D1*
X-10303Y42326D1*
X-10255Y42521D1*
X-10207Y42667D1*
X-10109Y42763D1*
X-10013Y42812D1*
X-9867D1*
X-9770Y42763D1*
X-9721Y42715D1*
X-9672Y42569D1*
Y42375D1*
X-9721Y42230D1*
X-9770Y42180D1*
X-9867Y42132D1*
X-10013D1*
X-10109Y42180D1*
X-10207Y42278D1*
X-10255Y42423D1*
X-10303Y42617D1*
X-10353Y42715D1*
X-10449Y42763D1*
X-10547D1*
X-10644Y42715D1*
X-10692Y42569D1*
Y42375D1*
X-13175Y41370D2*
X-12154D1*
Y41808D1*
X-12204Y41954D1*
X-12252Y42002D1*
X-12348Y42050D1*
X-12494D1*
X-12592Y42002D1*
X-12640Y41954D1*
X-12689Y41808D1*
X-12738Y41954D1*
X-12786Y42002D1*
X-12883Y42050D1*
X-12981D1*
X-13077Y42002D1*
X-13127Y41954D1*
X-13175Y41808D1*
Y41370D1*
X-12689D2*
Y41808D1*
X-12835Y42996D2*
X-12689Y42947D1*
X-12591Y42850D1*
X-12543Y42704D1*
Y42656D1*
X-12591Y42510D1*
X-12689Y42413D1*
X-12835Y42364D1*
X-12883D1*
X-13029Y42413D1*
X-13126Y42510D1*
X-13174Y42656D1*
Y42704D1*
X-13126Y42850D1*
X-13029Y42947D1*
X-12835Y42996D1*
X-12591D1*
X-12348Y42947D1*
X-12202Y42850D1*
X-12154Y42704D1*
Y42608D1*
X-12202Y42462D1*
X-12300Y42413D1*
X-15983Y41887D2*
Y41402D1*
X-15546Y41353D1*
X-15594Y41402D1*
X-15644Y41548D1*
Y41692D1*
X-15594Y41838D1*
X-15498Y41936D1*
X-15352Y41984D1*
X-15255D1*
X-15109Y41936D1*
X-15012Y41838D1*
X-14963Y41692D1*
Y41548D1*
X-15012Y41402D1*
X-15061Y41353D1*
X-15158Y41304D1*
X-15984Y42298D2*
X-14963D1*
Y42736D1*
X-15013Y42882D1*
X-15061Y42931D1*
X-15158Y42979D1*
X-15304D1*
X-15401Y42931D1*
X-15450Y42882D1*
X-15498Y42736D1*
X-15547Y42882D1*
X-15596Y42931D1*
X-15692Y42979D1*
X-15790D1*
X-15886Y42931D1*
X-15936Y42882D1*
X-15984Y42736D1*
Y42298D1*
X-15498D2*
Y42736D1*
X-18319Y41279D2*
Y41813D1*
X-17930Y41522D1*
Y41668D1*
X-17882Y41764D1*
X-17834Y41813D1*
X-17688Y41862D1*
X-17591D1*
X-17445Y41813D1*
X-17348Y41716D1*
X-17299Y41570D1*
Y41424D1*
X-17348Y41279D1*
X-17397Y41231D1*
X-17494Y41182D1*
X-17397Y42224D2*
X-17348Y42176D1*
X-17299Y42224D1*
X-17348Y42274D1*
X-17397Y42224D1*
X-18319Y42685D2*
Y43218D1*
X-17930Y42928D1*
Y43074D1*
X-17882Y43170D1*
X-17834Y43218D1*
X-17688Y43268D1*
X-17591D1*
X-17445Y43218D1*
X-17348Y43122D1*
X-17299Y42976D1*
Y42830D1*
X-17348Y42685D1*
X-17397Y42637D1*
X-17494Y42587D1*
X-21229Y43429D2*
X-21278Y43525D1*
X-21375Y43623D1*
X-21472Y43671D1*
X-21666D1*
X-21764Y43623D1*
X-21861Y43525D1*
X-21910Y43429D1*
X-21958Y43283D1*
Y43039D1*
X-21910Y42894D1*
X-21861Y42796D1*
X-21764Y42700D1*
X-21666Y42650D1*
X-21472D1*
X-21375Y42700D1*
X-21278Y42796D1*
X-21229Y42894D1*
Y43039D1*
X-21472D1*
X-20235Y43671D2*
Y42650D1*
X-20916Y43671D1*
Y42650D1*
X-19921Y43671D2*
Y42650D1*
X-19581D1*
X-19435Y42700D1*
X-19337Y42796D1*
X-19289Y42894D1*
X-19241Y43039D1*
Y43283D1*
X-19289Y43429D1*
X-19337Y43525D1*
X-19435Y43623D1*
X-19581Y43671D1*
X-19921D1*
X17437Y20049D2*
X18458Y20293D1*
X17437Y20535D1*
X18458Y20778D1*
X17437Y21022D1*
Y21335D2*
X17486Y21384D1*
X17437Y21433D1*
X17388Y21384D1*
X17437Y21335D1*
X17778Y21384D2*
X18458D1*
X17778Y21747D2*
Y22281D1*
X18458Y21747D1*
Y22281D1*
X17778Y23178D2*
X18458D1*
X17924D2*
X17826Y23081D1*
X17778Y22984D1*
Y22839D1*
X17826Y22741D1*
X17924Y22644D1*
X18070Y22595D1*
X18166D1*
X18312Y22644D1*
X18409Y22741D1*
X18458Y22839D1*
Y22984D1*
X18409Y23081D1*
X18312Y23178D1*
X17778Y23492D2*
X18458D1*
X18070D2*
X17924Y23541D1*
X17826Y23638D1*
X17778Y23735D1*
Y23881D1*
X17437Y24778D2*
X18458D1*
X17924D2*
X17826Y24681D1*
X17778Y24584D1*
Y24438D1*
X17826Y24341D1*
X17924Y24243D1*
X18070Y24195D1*
X18166D1*
X18312Y24243D1*
X18409Y24341D1*
X18458Y24438D1*
Y24584D1*
X18409Y24681D1*
X18312Y24778D1*
X17437Y25092D2*
X17486Y25140D1*
X17437Y25189D1*
X17388Y25140D1*
X17437Y25092D1*
X17778Y25140D2*
X18458D1*
X17778Y25503D2*
X18458D1*
X17972D2*
X17826Y25649D1*
X17778Y25747D1*
Y25892D1*
X17826Y25989D1*
X17972Y26038D1*
X18458D1*
X17778Y26594D2*
X17826Y26497D1*
X17924Y26400D1*
X18070Y26351D1*
X18166D1*
X18312Y26400D1*
X18409Y26497D1*
X18458Y26594D1*
Y26740D1*
X18409Y26838D1*
X18312Y26934D1*
X18166Y26984D1*
X18070D1*
X17924Y26934D1*
X17826Y26838D1*
X17778Y26740D1*
Y26594D1*
X-10167Y39880D2*
Y38859D1*
X-9729D1*
X-9583Y38908D1*
X-9534Y38956D1*
X-9486Y39053D1*
Y39199D1*
X-9534Y39297D1*
X-9583Y39345D1*
X-9729Y39393D1*
X-9583Y39443D1*
X-9534Y39491D1*
X-9486Y39588D1*
Y39685D1*
X-9534Y39782D1*
X-9583Y39831D1*
X-9729Y39880D1*
X-10167D1*
Y39393D2*
X-9729D1*
X-8930Y39539D2*
X-9026Y39491D1*
X-9124Y39393D1*
X-9172Y39247D1*
Y39151D1*
X-9124Y39005D1*
X-9026Y38908D1*
X-8930Y38859D1*
X-8784D1*
X-8686Y38908D1*
X-8589Y39005D1*
X-8540Y39151D1*
Y39247D1*
X-8589Y39393D1*
X-8686Y39491D1*
X-8784Y39539D1*
X-8930D1*
X-7984D2*
X-8080Y39491D1*
X-8178Y39393D1*
X-8226Y39247D1*
Y39151D1*
X-8178Y39005D1*
X-8080Y38908D1*
X-7984Y38859D1*
X-7838D1*
X-7740Y38908D1*
X-7643Y39005D1*
X-7594Y39151D1*
Y39247D1*
X-7643Y39393D1*
X-7740Y39491D1*
X-7838Y39539D1*
X-7984D1*
X-7134Y39880D2*
Y39053D1*
X-7086Y38908D1*
X-6988Y38859D1*
X-6892D1*
X-7280Y39539D2*
X-6940D1*
M02*
